# xmcd
#
# Track frame offsets: 
#        150
#        39310
#        61685
#        71538
#        94675
#        117798
#        127445
#        151555
#        159173
#        199323
#        213255
#        230358
#        253348
#        260668
#        290683
#
# Disc length: 4138 seconds
#
# Revision: 0
# Processed by: cddbd v1.5.2PL0 Copyright (c) Steve Scherf et al.
# Submitted via: ExactAudioCopy v1.0b3
#
DISCID=d410280f
DTITLE=Kalle Sändare - Va' bra de' hörs
DYEAR=1990
DGENRE=
TTITLE0=Sparvar i mun
TTITLE1=Röster i radio - intervju
TTITLE2=Parfymbaren - del 1
TTITLE3=Sökes: man med eget kapital 30.000:- - 50.000:- för litet men 
TTITLE3=lönande projekt i Afrika
TTITLE4=Är det något du vill fråga mej om ska jag gärna svara i den må
TTITLE4=n jag kan
TTITLE5=Swingtrappa
TTITLE6=Familjebur
TTITLE7=Listan - intervju från TV
TTITLE8=Aftonbladet - intervju
TTITLE9=Parfymbaren - del 2
TTITLE10=Gult badkar i Norge
TTITLE11=Ridlektionen
TTITLE12=Att gå på bio i Oslo
TTITLE13=Salong Hårsvallet
TTITLE14=Kinesiskt julbord i Norge
EXTD=
EXTT0=
EXTT1=
EXTT2=
EXTT3=
EXTT4=
EXTT5=
EXTT6=
EXTT7=
EXTT8=
EXTT9=
EXTT10=
EXTT11=
EXTT12=
EXTT13=
EXTT14=
PLAYORDER=
